<?xml version="1.0" standalone="no"?>
<!DOCTYPE svg PUBLIC "-//W3C//DTD SVG 20010904//EN"
 "http://www.w3.org/TR/2001/REC-SVG-20010904/DTD/svg10.dtd">
<svg version="1.0" xmlns="http://www.w3.org/2000/svg"
 width="462.000000pt" height="93.000000pt" viewBox="0 0 462.000000 93.000000"
 preserveAspectRatio="xMidYMid meet">

<g transform="translate(0.000000,93.000000) scale(0.100000,-0.100000)"
fill="#000000" stroke="none">
<path d="M1370 455 c0 -230 4 -355 10 -355 6 0 10 125 10 355 0 230 -4 355
-10 355 -6 0 -10 -125 -10 -355z"/>
<path d="M711 750 l-31 -51 37 7 c59 10 70 26 46 64 l-20 32 -32 -52z"/>
<path d="M747 628 c-19 -40 -34 -75 -32 -77 2 -2 28 11 57 28 86 50 82 44 58
84 -12 21 -28 37 -35 37 -7 0 -28 -33 -48 -72z"/>
<path d="M697 683 c-17 -3 -36 -17 -52 -41 -32 -46 -31 -52 4 -86 l28 -27 37
76 c20 43 36 79 36 81 0 4 -7 4 -53 -3z"/>
<path d="M780 559 c-36 -21 -69 -41 -75 -43 -5 -2 1 -16 15 -30 l26 -26 61 21
c48 16 64 26 73 49 13 31 0 71 -23 69 -7 0 -41 -18 -77 -40z"/>
<path d="M3157 570 c-53 -63 -57 -141 -11 -212 25 -39 42 -46 62 -26 8 8 6 19
-11 42 -30 43 -30 123 0 164 21 29 21 30 4 46 -17 16 -20 15 -44 -14z"/>
<path d="M3638 584 c-15 -15 -15 -19 3 -48 27 -44 26 -125 -2 -160 -20 -25
-20 -29 -6 -44 15 -14 18 -14 38 4 65 59 65 189 0 248 -16 14 -19 14 -33 0z"/>
<path d="M571 529 l-23 -42 25 7 c15 3 38 11 53 16 l27 11 -23 24 c-13 14 -26
25 -29 25 -3 0 -17 -19 -30 -41z"/>
<path d="M1585 561 c-33 -14 -48 -38 -41 -65 6 -25 25 -33 109 -51 15 -3 25
-9 23 -14 -10 -16 -45 -19 -72 -5 -53 28 -91 11 -55 -25 44 -44 153 -38 180
11 14 24 14 28 -3 47 -10 11 -35 23 -55 27 -54 9 -71 14 -71 24 0 15 39 18 66
4 55 -29 86 -7 44 31 -22 20 -95 29 -125 16z"/>
<path d="M1770 497 c0 -59 4 -77 20 -95 38 -40 121 -41 160 -2 16 16 20 34 20
95 0 72 -1 75 -24 75 -28 0 -34 -11 -31 -65 3 -65 -9 -87 -47 -83 l-33 3 -3
73 -3 72 -29 0 -30 0 0 -73z"/>
<path d="M2020 469 l0 -100 28 3 c25 3 27 7 32 52 l5 50 19 -52 c16 -46 21
-52 46 -52 25 0 31 6 47 48 l18 47 5 -45 c4 -40 8 -45 33 -48 l27 -3 0 101 0
101 -37 -3 c-36 -3 -39 -6 -64 -67 l-27 -65 -30 67 c-30 64 -32 67 -66 67
l-36 0 0 -101z"/>
<path d="M2330 469 l0 -100 28 3 c25 3 27 7 32 52 l5 50 19 -52 c16 -46 21
-52 46 -52 25 0 31 6 47 48 l18 47 5 -45 c4 -40 8 -45 33 -48 l27 -3 0 101 0
101 -37 -3 c-36 -3 -39 -6 -64 -67 l-27 -65 -30 67 c-30 64 -32 67 -66 67
l-36 0 0 -101z"/>
<path d="M2684 535 c-8 -19 -26 -61 -39 -92 -14 -30 -25 -59 -25 -64 0 -17 46
-9 63 11 11 13 29 20 52 20 24 0 39 -6 47 -20 14 -22 68 -28 67 -7 0 6 -17 50
-38 97 -37 83 -39 85 -75 88 -34 3 -38 0 -52 -33z m54 -83 c-28 -5 -31 1 -16
33 l12 28 12 -29 c11 -26 10 -29 -8 -32z"/>
<path d="M2880 471 l0 -101 30 0 c28 0 30 3 30 35 0 31 3 35 25 35 17 0 32
-10 47 -35 17 -26 30 -35 51 -35 32 0 34 12 6 51 -19 28 -20 31 -5 48 22 24
20 54 -5 77 -16 14 -40 20 -100 23 l-79 3 0 -101z m129 50 c25 -16 4 -41 -34
-41 -31 0 -35 3 -35 25 0 21 5 25 28 25 15 0 33 -4 41 -9z"/>
<path d="M3303 558 c-8 -13 -83 -180 -83 -185 0 -2 13 -3 30 -3 19 0 33 7 40
20 8 15 21 20 50 20 29 0 42 -5 50 -20 12 -23 76 -30 67 -7 -74 180 -79 187
-113 187 -18 0 -36 -6 -41 -12z m51 -74 c10 -26 7 -34 -14 -34 -11 0 -20 4
-20 9 0 17 12 41 20 41 4 0 11 -7 14 -16z"/>
<path d="M3476 555 c-8 -21 1 -35 20 -35 10 0 14 -13 14 -49 0 -41 -3 -50 -21
-54 -13 -4 -20 -12 -17 -24 3 -15 13 -18 68 -18 55 0 65 3 68 18 3 12 -4 20
-17 24 -18 4 -21 13 -21 53 0 40 3 49 21 53 13 4 20 12 17 24 -5 26 -122 33
-132 8z"/>
<path d="M3750 545 c0 -23 3 -25 52 -25 l52 0 -52 -53 c-31 -32 -52 -61 -52
-75 0 -21 4 -22 95 -22 95 0 95 0 95 25 0 24 -3 25 -57 25 l-58 0 58 54 c35
33 57 61 57 75 0 20 -4 21 -95 21 -95 0 -95 0 -95 -25z"/>
<path d="M3970 470 l0 -100 96 0 c93 0 95 1 92 23 -3 20 -9 22 -65 25 -74 3
-84 20 -15 24 40 3 47 6 50 26 3 20 0 22 -47 22 -38 0 -51 4 -51 15 0 10 16
15 63 17 56 3 62 5 65 26 3 21 1 22 -92 22 l-96 0 0 -100z"/>
<path d="M593 476 c-58 -19 -63 -23 -63 -49 0 -22 4 -27 18 -23 9 2 36 10 60
17 23 7 42 13 42 13 0 1 4 16 9 34 5 17 7 31 3 30 -4 0 -35 -10 -69 -22z"/>
<path d="M892 483 c-11 -4 -62 -93 -62 -108 0 -4 25 15 55 42 30 26 55 54 55
61 0 12 -24 15 -48 5z"/>
<path d="M680 455 c0 -9 6 -12 15 -9 8 4 12 10 9 15 -8 14 -24 10 -24 -6z"/>
<path d="M805 458 c-40 -14 -41 -15 -20 -38 24 -27 29 -26 48 15 18 38 17 39
-28 23z"/>
<path d="M902 403 c-51 -44 -52 -46 -35 -65 10 -11 30 -29 44 -39 l27 -19 36
45 37 44 -26 41 c-14 22 -26 40 -28 40 -1 0 -26 -21 -55 -47z"/>
<path d="M688 423 c-19 -5 -32 -42 -49 -142 -12 -64 -6 -80 27 -81 13 0 104
103 123 139 12 21 10 27 -20 57 -32 33 -44 37 -81 27z"/>
<path d="M496 411 c-4 -7 -5 -15 -2 -18 9 -9 19 4 14 18 -4 11 -6 11 -12 0z"/>
<path d="M575 388 c-16 -6 -32 -12 -34 -14 -1 -1 2 -34 9 -72 9 -56 16 -71 31
-75 23 -6 24 -5 39 78 6 33 14 68 16 78 6 20 -14 21 -61 5z"/>
<path d="M456 345 c-9 -13 -16 -37 -16 -53 0 -26 4 -30 47 -39 27 -6 49 -11
49 -10 1 1 -3 30 -9 65 -9 55 -12 62 -32 62 -13 0 -30 -11 -39 -25z"/>
<path d="M817 322 c-9 -10 -26 -52 -36 -93 -18 -68 -18 -75 -3 -87 9 -6 21
-12 27 -12 11 0 121 130 113 133 -2 1 -22 19 -44 40 -39 36 -41 37 -57 19z"/>
<path d="M986 306 c-32 -43 -32 -47 0 -75 l26 -23 28 34 28 33 -18 30 c-26 41
-33 41 -64 1z"/>
<path d="M726 223 c-24 -28 -27 -36 -15 -44 26 -17 36 -9 43 32 4 23 5 43 4
44 -2 1 -16 -14 -32 -32z"/>
<path d="M1056 221 l-28 -30 21 -30 c19 -26 29 -31 62 -31 21 0 39 4 39 8 0 4
-15 31 -33 60 l-33 52 -28 -29z"/>
<path d="M365 199 c-42 -65 -42 -69 -2 -69 31 0 35 3 41 31 9 46 7 79 -4 79
-5 0 -21 -18 -35 -41z"/>
<path d="M437 232 c-3 -4 -7 -27 -8 -52 l-4 -45 54 -3 c30 -2 58 1 63 6 5 5 6
25 3 45 -6 31 -11 36 -50 46 -52 13 -53 13 -58 3z"/>
<path d="M897 196 c-20 -25 -37 -50 -37 -55 0 -6 17 -11 38 -11 29 0 45 7 67
30 l29 30 -24 25 c-13 14 -26 25 -30 25 -3 0 -22 -20 -43 -44z"/>
<path d="M567 204 c-8 -8 7 -65 18 -67 17 -3 18 60 2 66 -8 3 -17 4 -20 1z"/>
<path d="M620 158 l0 -33 20 25 c13 18 15 27 7 32 -21 14 -27 8 -27 -24z"/>
<path d="M670 154 c-18 -20 -8 -26 36 -22 l39 3 -31 17 c-28 15 -33 16 -44 2z"/>
<path d="M990 150 c-9 -18 -8 -20 15 -20 27 0 28 1 19 24 -8 22 -21 20 -34 -4z"/>
</g>
</svg>
